<svg width="968" height="786" viewBox="0 0 968 786" fill="none" xmlns="http://www.w3.org/2000/svg">
<rect x="3.09192" y="0.868896" width="964.458" height="781.934" rx="10" transform="rotate(0.190214 3.09192 0.868896)" fill="#D9D9D9"/>
<rect x="41" y="51" width="885" height="701" fill="white"/>
<circle cx="101" cy="27" r="10" fill="#008000"/>
<circle cx="66" cy="27" r="10" fill="white"/>
<circle cx="31" cy="27" r="10" fill="#FF0000"/>
<rect x="41" y="51" width="885" height="701" fill="#3C275A"/>
<rect x="41" y="87" width="885" height="88" fill="#4F3674"/>
<rect x="41" y="175" width="885" height="65" fill="white"/>
<rect x="41" y="240" width="885" height="22" fill="#D6A800"/>
<rect x="101" y="327" width="245" height="34" fill="#D6A800"/>
<rect x="625" y="327" width="245" height="34" fill="#D6A800"/>
<path d="M165.426 340.794V339.273H172.594V340.794H169.922V348H168.098V340.794H165.426ZM175.774 348.128C175.1 348.128 174.521 347.991 174.035 347.719C173.552 347.443 173.18 347.054 172.919 346.551C172.657 346.045 172.527 345.447 172.527 344.757C172.527 344.084 172.657 343.493 172.919 342.984C173.18 342.476 173.548 342.08 174.022 341.795C174.5 341.511 175.059 341.369 175.701 341.369C176.133 341.369 176.535 341.439 176.907 341.578C177.282 341.714 177.609 341.92 177.887 342.196C178.169 342.472 178.387 342.818 178.544 343.236C178.7 343.651 178.778 344.136 178.778 344.693V345.192H173.251V344.067H177.069C177.069 343.805 177.012 343.574 176.899 343.372C176.785 343.17 176.627 343.013 176.426 342.899C176.227 342.783 175.995 342.724 175.731 342.724C175.456 342.724 175.211 342.788 174.998 342.916C174.788 343.041 174.623 343.21 174.504 343.423C174.385 343.634 174.324 343.868 174.321 344.126V345.196C174.321 345.52 174.38 345.8 174.5 346.036C174.622 346.271 174.794 346.453 175.015 346.581C175.237 346.709 175.5 346.773 175.804 346.773C176.005 346.773 176.19 346.744 176.358 346.688C176.525 346.631 176.669 346.545 176.788 346.432C176.907 346.318 176.998 346.179 177.061 346.014L178.74 346.125C178.654 346.528 178.48 346.881 178.216 347.182C177.954 347.48 177.616 347.713 177.201 347.881C176.789 348.045 176.314 348.128 175.774 348.128ZM182.92 348.128C182.25 348.128 181.673 347.986 181.19 347.702C180.71 347.415 180.341 347.017 180.082 346.509C179.826 346 179.699 345.415 179.699 344.753C179.699 344.082 179.828 343.494 180.086 342.989C180.348 342.48 180.718 342.084 181.199 341.8C181.679 341.513 182.25 341.369 182.912 341.369C183.483 341.369 183.983 341.473 184.412 341.68C184.841 341.888 185.18 342.179 185.43 342.554C185.68 342.929 185.818 343.369 185.843 343.875H184.13C184.082 343.548 183.954 343.286 183.747 343.087C183.542 342.885 183.274 342.784 182.941 342.784C182.66 342.784 182.414 342.861 182.204 343.014C181.997 343.165 181.835 343.385 181.718 343.675C181.602 343.964 181.544 344.315 181.544 344.727C181.544 345.145 181.6 345.5 181.714 345.793C181.831 346.085 181.994 346.308 182.204 346.462C182.414 346.615 182.66 346.692 182.941 346.692C183.149 346.692 183.335 346.649 183.5 346.564C183.667 346.479 183.805 346.355 183.913 346.193C184.024 346.028 184.096 345.831 184.13 345.601H185.843C185.815 346.101 185.679 346.541 185.434 346.922C185.193 347.3 184.859 347.595 184.433 347.808C184.007 348.021 183.502 348.128 182.92 348.128ZM188.821 344.216V348H187.006V339.273H188.77V342.609H188.847C188.994 342.223 189.233 341.92 189.562 341.702C189.892 341.48 190.305 341.369 190.803 341.369C191.257 341.369 191.653 341.469 191.991 341.668C192.332 341.864 192.597 342.146 192.784 342.516C192.974 342.882 193.068 343.321 193.065 343.832V348H191.25V344.156C191.253 343.753 191.151 343.439 190.943 343.214C190.739 342.99 190.452 342.878 190.082 342.878C189.835 342.878 189.616 342.93 189.426 343.036C189.239 343.141 189.091 343.294 188.983 343.496C188.878 343.695 188.824 343.935 188.821 344.216ZM196.309 344.216V348H194.494V341.455H196.224V342.609H196.301C196.446 342.229 196.689 341.928 197.029 341.706C197.37 341.482 197.784 341.369 198.27 341.369C198.724 341.369 199.12 341.469 199.458 341.668C199.797 341.866 200.059 342.151 200.247 342.52C200.434 342.886 200.528 343.324 200.528 343.832V348H198.713V344.156C198.716 343.756 198.613 343.443 198.406 343.219C198.199 342.991 197.913 342.878 197.549 342.878C197.305 342.878 197.089 342.93 196.902 343.036C196.717 343.141 196.572 343.294 196.467 343.496C196.365 343.695 196.312 343.935 196.309 344.216ZM201.959 348V341.455H203.774V348H201.959ZM202.871 340.611C202.601 340.611 202.369 340.521 202.176 340.342C201.986 340.161 201.891 339.943 201.891 339.69C201.891 339.44 201.986 339.226 202.176 339.047C202.369 338.865 202.601 338.774 202.871 338.774C203.141 338.774 203.371 338.865 203.561 339.047C203.754 339.226 203.851 339.44 203.851 339.69C203.851 339.943 203.754 340.161 203.561 340.342C203.371 340.521 203.141 340.611 202.871 340.611ZM208.186 348.128C207.515 348.128 206.939 347.986 206.456 347.702C205.975 347.415 205.606 347.017 205.348 346.509C205.092 346 204.964 345.415 204.964 344.753C204.964 344.082 205.093 343.494 205.352 342.989C205.613 342.48 205.984 342.084 206.464 341.8C206.944 341.513 207.515 341.369 208.177 341.369C208.748 341.369 209.248 341.473 209.677 341.68C210.106 341.888 210.446 342.179 210.696 342.554C210.946 342.929 211.083 343.369 211.109 343.875H209.396C209.348 343.548 209.22 343.286 209.012 343.087C208.808 342.885 208.539 342.784 208.207 342.784C207.926 342.784 207.68 342.861 207.47 343.014C207.262 343.165 207.1 343.385 206.984 343.675C206.868 343.964 206.809 344.315 206.809 344.727C206.809 345.145 206.866 345.5 206.98 345.793C207.096 346.085 207.26 346.308 207.47 346.462C207.68 346.615 207.926 346.692 208.207 346.692C208.414 346.692 208.6 346.649 208.765 346.564C208.933 346.479 209.071 346.355 209.179 346.193C209.289 346.028 209.362 345.831 209.396 345.601H211.109C211.081 346.101 210.944 346.541 210.7 346.922C210.458 347.3 210.125 347.595 209.699 347.808C209.272 348.021 208.768 348.128 208.186 348.128ZM214.138 348.124C213.72 348.124 213.348 348.051 213.021 347.906C212.695 347.759 212.436 347.541 212.246 347.254C212.058 346.964 211.964 346.604 211.964 346.172C211.964 345.808 212.031 345.503 212.165 345.256C212.298 345.009 212.48 344.81 212.71 344.659C212.94 344.509 213.202 344.395 213.494 344.318C213.79 344.241 214.099 344.188 214.423 344.156C214.804 344.116 215.111 344.08 215.344 344.045C215.577 344.009 215.746 343.955 215.851 343.884C215.956 343.812 216.009 343.707 216.009 343.568V343.543C216.009 343.273 215.923 343.064 215.753 342.916C215.585 342.768 215.347 342.695 215.037 342.695C214.71 342.695 214.45 342.767 214.257 342.912C214.064 343.054 213.936 343.233 213.874 343.449L212.195 343.312C212.28 342.915 212.447 342.571 212.697 342.281C212.947 341.989 213.27 341.764 213.665 341.608C214.063 341.449 214.523 341.369 215.045 341.369C215.409 341.369 215.757 341.412 216.089 341.497C216.425 341.582 216.722 341.714 216.98 341.893C217.241 342.072 217.447 342.303 217.598 342.584C217.749 342.862 217.824 343.196 217.824 343.585V348H216.102V347.092H216.051C215.946 347.297 215.805 347.477 215.629 347.634C215.453 347.787 215.241 347.908 214.994 347.996C214.747 348.081 214.462 348.124 214.138 348.124ZM214.658 346.871C214.925 346.871 215.161 346.818 215.365 346.713C215.57 346.605 215.73 346.46 215.847 346.278C215.963 346.097 216.021 345.891 216.021 345.661V344.966C215.964 345.003 215.886 345.037 215.787 345.068C215.69 345.097 215.581 345.124 215.459 345.149C215.337 345.172 215.214 345.193 215.092 345.213C214.97 345.23 214.859 345.246 214.76 345.26C214.547 345.291 214.361 345.341 214.202 345.409C214.043 345.477 213.919 345.57 213.831 345.686C213.743 345.8 213.699 345.942 213.699 346.112C213.699 346.359 213.788 346.548 213.967 346.679C214.149 346.807 214.379 346.871 214.658 346.871ZM221.048 339.273V348H219.232V339.273H221.048ZM230.048 341.783C230.013 341.439 229.867 341.172 229.609 340.982C229.35 340.791 228.999 340.696 228.556 340.696C228.255 340.696 228.001 340.739 227.793 340.824C227.586 340.906 227.427 341.021 227.316 341.169C227.208 341.317 227.154 341.484 227.154 341.672C227.148 341.828 227.181 341.964 227.252 342.081C227.326 342.197 227.427 342.298 227.555 342.384C227.683 342.466 227.83 342.538 227.998 342.601C228.165 342.661 228.344 342.712 228.535 342.754L229.319 342.942C229.7 343.027 230.049 343.141 230.367 343.283C230.685 343.425 230.961 343.599 231.194 343.807C231.427 344.014 231.607 344.259 231.735 344.54C231.866 344.821 231.933 345.143 231.935 345.507C231.933 346.041 231.796 346.504 231.526 346.896C231.259 347.286 230.873 347.588 230.367 347.804C229.864 348.017 229.258 348.124 228.548 348.124C227.843 348.124 227.229 348.016 226.707 347.8C226.187 347.584 225.781 347.264 225.488 346.841C225.198 346.415 225.046 345.888 225.032 345.26H226.817C226.837 345.553 226.921 345.797 227.069 345.993C227.219 346.186 227.42 346.332 227.67 346.432C227.923 346.528 228.208 346.577 228.526 346.577C228.839 346.577 229.11 346.531 229.34 346.44C229.573 346.349 229.754 346.223 229.881 346.061C230.009 345.899 230.073 345.713 230.073 345.503C230.073 345.307 230.015 345.142 229.898 345.009C229.785 344.875 229.617 344.761 229.396 344.668C229.177 344.574 228.908 344.489 228.59 344.412L227.64 344.173C226.904 343.994 226.323 343.714 225.897 343.334C225.471 342.953 225.259 342.44 225.262 341.795C225.259 341.267 225.4 340.805 225.684 340.411C225.971 340.016 226.364 339.707 226.864 339.486C227.364 339.264 227.933 339.153 228.569 339.153C229.217 339.153 229.782 339.264 230.265 339.486C230.751 339.707 231.129 340.016 231.398 340.411C231.668 340.805 231.808 341.263 231.816 341.783H230.048ZM237.34 345.213V341.455H239.155V348H237.412V346.811H237.344C237.196 347.195 236.951 347.503 236.607 347.736C236.266 347.969 235.85 348.085 235.358 348.085C234.921 348.085 234.536 347.986 234.203 347.787C233.871 347.588 233.611 347.305 233.424 346.939C233.239 346.572 233.145 346.134 233.142 345.622V341.455H234.958V345.298C234.961 345.685 235.064 345.99 235.269 346.214C235.473 346.439 235.748 346.551 236.091 346.551C236.31 346.551 236.515 346.501 236.705 346.402C236.895 346.3 237.049 346.149 237.165 345.95C237.284 345.751 237.343 345.506 237.34 345.213ZM240.607 350.455V341.455H242.397V342.554H242.478C242.558 342.378 242.673 342.199 242.823 342.017C242.977 341.832 243.175 341.679 243.42 341.557C243.667 341.432 243.974 341.369 244.34 341.369C244.817 341.369 245.258 341.494 245.661 341.744C246.065 341.991 246.387 342.365 246.629 342.865C246.87 343.362 246.991 343.986 246.991 344.736C246.991 345.466 246.873 346.082 246.637 346.585C246.404 347.085 246.086 347.464 245.683 347.723C245.282 347.979 244.833 348.107 244.336 348.107C243.984 348.107 243.684 348.048 243.437 347.932C243.192 347.815 242.992 347.669 242.836 347.493C242.68 347.314 242.56 347.134 242.478 346.952H242.423V350.455H240.607ZM242.384 344.727C242.384 345.116 242.438 345.456 242.546 345.746C242.654 346.036 242.81 346.261 243.015 346.423C243.219 346.582 243.468 346.662 243.761 346.662C244.056 346.662 244.306 346.581 244.511 346.419C244.715 346.254 244.87 346.027 244.975 345.737C245.083 345.445 245.137 345.108 245.137 344.727C245.137 344.349 245.085 344.017 244.979 343.73C244.874 343.443 244.719 343.219 244.515 343.057C244.31 342.895 244.059 342.814 243.761 342.814C243.465 342.814 243.215 342.892 243.011 343.048C242.809 343.205 242.654 343.426 242.546 343.713C242.438 344 242.384 344.338 242.384 344.727ZM248.201 350.455V341.455H249.991V342.554H250.072C250.151 342.378 250.266 342.199 250.417 342.017C250.57 341.832 250.769 341.679 251.013 341.557C251.261 341.432 251.567 341.369 251.934 341.369C252.411 341.369 252.852 341.494 253.255 341.744C253.658 341.991 253.981 342.365 254.222 342.865C254.464 343.362 254.585 343.986 254.585 344.736C254.585 345.466 254.467 346.082 254.231 346.585C253.998 347.085 253.68 347.464 253.276 347.723C252.876 347.979 252.427 348.107 251.93 348.107C251.577 348.107 251.278 348.048 251.031 347.932C250.786 347.815 250.586 347.669 250.43 347.493C250.273 347.314 250.154 347.134 250.072 346.952H250.016V350.455H248.201ZM249.978 344.727C249.978 345.116 250.032 345.456 250.14 345.746C250.248 346.036 250.404 346.261 250.609 346.423C250.813 346.582 251.062 346.662 251.354 346.662C251.65 346.662 251.9 346.581 252.104 346.419C252.309 346.254 252.464 346.027 252.569 345.737C252.677 345.445 252.731 345.108 252.731 344.727C252.731 344.349 252.678 344.017 252.573 343.73C252.468 343.443 252.313 343.219 252.109 343.057C251.904 342.895 251.653 342.814 251.354 342.814C251.059 342.814 250.809 342.892 250.604 343.048C250.403 343.205 250.248 343.426 250.14 343.713C250.032 344 249.978 344.338 249.978 344.727ZM258.752 348.128C258.09 348.128 257.518 347.987 257.035 347.706C256.555 347.422 256.184 347.027 255.923 346.521C255.661 346.013 255.531 345.423 255.531 344.753C255.531 344.077 255.661 343.486 255.923 342.98C256.184 342.472 256.555 342.077 257.035 341.795C257.518 341.511 258.09 341.369 258.752 341.369C259.414 341.369 259.985 341.511 260.465 341.795C260.948 342.077 261.32 342.472 261.582 342.98C261.843 343.486 261.974 344.077 261.974 344.753C261.974 345.423 261.843 346.013 261.582 346.521C261.32 347.027 260.948 347.422 260.465 347.706C259.985 347.987 259.414 348.128 258.752 348.128ZM258.761 346.722C259.062 346.722 259.313 346.636 259.515 346.466C259.717 346.293 259.869 346.057 259.971 345.759C260.076 345.46 260.129 345.121 260.129 344.74C260.129 344.359 260.076 344.02 259.971 343.722C259.869 343.423 259.717 343.187 259.515 343.014C259.313 342.841 259.062 342.754 258.761 342.754C258.457 342.754 258.201 342.841 257.994 343.014C257.789 343.187 257.634 343.423 257.529 343.722C257.427 344.02 257.376 344.359 257.376 344.74C257.376 345.121 257.427 345.46 257.529 345.759C257.634 346.057 257.789 346.293 257.994 346.466C258.201 346.636 258.457 346.722 258.761 346.722ZM263.154 348V341.455H264.914V342.597H264.982C265.102 342.19 265.302 341.884 265.583 341.676C265.864 341.466 266.188 341.361 266.555 341.361C266.646 341.361 266.744 341.366 266.849 341.378C266.954 341.389 267.046 341.405 267.126 341.425V343.036C267.04 343.01 266.923 342.987 266.772 342.967C266.621 342.947 266.484 342.938 266.359 342.938C266.092 342.938 265.853 342.996 265.643 343.112C265.435 343.226 265.271 343.385 265.148 343.589C265.029 343.794 264.969 344.03 264.969 344.297V348H263.154ZM271.874 341.455V342.818H267.932V341.455H271.874ZM268.827 339.886H270.642V345.989C270.642 346.156 270.668 346.287 270.719 346.381C270.77 346.472 270.841 346.536 270.932 346.572C271.026 346.609 271.134 346.628 271.256 346.628C271.341 346.628 271.426 346.621 271.512 346.607C271.597 346.589 271.662 346.577 271.708 346.568L271.993 347.919C271.902 347.947 271.775 347.98 271.61 348.017C271.445 348.057 271.245 348.081 271.009 348.089C270.571 348.107 270.188 348.048 269.858 347.915C269.532 347.781 269.277 347.574 269.096 347.293C268.914 347.011 268.824 346.656 268.827 346.227V339.886Z" fill="black"/>
</svg>
